<?xml version="1.0" encoding="UTF-8" standalone="no"?>
<!-- Created with Inkscape (http://www.inkscape.org/) -->

<svg
   width="129.59431mm"
   height="129.59431mm"
   viewBox="0 0 129.59431 129.59431"
   version="1.1"
   id="svg5"
   inkscape:version="1.2.1 (9c6d41e410, 2022-07-14, custom)"
   sodipodi:docname="logo.svg"
   xmlns:inkscape="http://www.inkscape.org/namespaces/inkscape"
   xmlns:sodipodi="http://sodipodi.sourceforge.net/DTD/sodipodi-0.dtd"
   xmlns="http://www.w3.org/2000/svg"
   xmlns:svg="http://www.w3.org/2000/svg">
  <sodipodi:namedview
     id="namedview7"
     pagecolor="#505050"
     bordercolor="#eeeeee"
     borderopacity="1"
     inkscape:showpageshadow="0"
     inkscape:pageopacity="0"
     inkscape:pagecheckerboard="0"
     inkscape:deskcolor="#505050"
     inkscape:document-units="mm"
     showgrid="false"
     inkscape:zoom="0.5946522"
     inkscape:cx="-290.08553"
     inkscape:cy="194.23118"
     inkscape:window-width="1891"
     inkscape:window-height="1052"
     inkscape:window-x="0"
     inkscape:window-y="0"
     inkscape:window-maximized="1"
     inkscape:current-layer="layer1" />
  <defs
     id="defs2" />
  <g
     inkscape:label="Capa 1"
     inkscape:groupmode="layer"
     id="layer1"
     transform="translate(-19.118988,-37.219742)">
    <path
       id="path286"
       style="fill:#1a1a1a;stroke-linejoin:round;stroke-dasharray:7.99999, 4;stroke-dashoffset:8.30001"
       d="M 148.7133,102.0169 A 64.797157,64.797157 0 0 1 83.916145,166.81406 64.797157,64.797157 0 0 1 19.118988,102.0169 64.797157,64.797157 0 0 1 83.916145,37.219742 64.797157,64.797157 0 0 1 148.7133,102.0169 Z" />
    <g
       aria-label="P"
       id="text342"
       style="font-size:94.718px;line-height:3.45;font-family:'Kaushan Script';-inkscape-font-specification:'Kaushan Script';fill:#ffffff;stroke-width:0.493322">
      <path
         d="m 93.976325,76.726255 q 0,5.209491 -2.652104,9.945391 -2.557386,4.7359 -7.009132,8.335184 -4.357029,3.504566 -10.324263,5.58836 -5.872516,2.0838 -12.502776,2.0838 -2.36795,0 -3.78872,-0.56831 -1.326052,-0.66303 -3.030976,-2.462668 -4.7359,10.324258 -7.766876,19.038318 -2.936258,8.61934 -4.641182,16.76509 -3.599285,-0.85247 -5.872517,-3.03098 -2.273232,-2.0838 -4.167592,-5.30421 0.94718,-1.79964 2.273232,-4.7359 1.326052,-2.93626 3.220412,-7.19857 1.89436,-4.35702 4.357029,-10.32426 2.557386,-6.06195 5.967234,-14.11298 1.515488,-3.694002 2.652104,-6.440824 1.136616,-2.746822 1.989078,-5.114772 0.852462,-2.462669 1.515488,-4.830619 0.757744,-2.36795 1.515488,-5.20949 -4.451746,1.42077 -8.240466,3.31513 -3.694002,1.89436 -6.15667,3.978156 -0.852462,-0.568308 -1.799643,-1.704924 -0.852462,-1.136616 -1.610206,-2.462668 -0.757744,-1.42077 -1.326052,-2.84154 -0.568308,-1.42077 -0.663026,-2.557386 2.746822,-1.89436 6.819697,-3.504566 4.072874,-1.610206 8.714056,-2.746822 4.641182,-1.231334 9.566518,-1.89436 5.020054,-0.663026 9.566518,-0.663026 5.398926,0 9.755954,1.42077 4.357029,1.326052 7.388005,3.78872 3.030976,2.462668 4.641182,5.872516 1.610206,3.409848 1.610206,7.57744 z M 77.11652,65.360095 q -3.599284,0 -7.388004,0.568308 l 1.136616,1.704924 q -0.94718,1.231334 -2.36795,3.694002 -1.42077,2.462668 -3.125694,5.967234 -1.704924,3.409849 -3.78872,7.672159 -1.989078,4.26231 -4.26231,8.99821 7.388004,0 13.449956,-1.326052 6.061952,-1.42077 10.324262,-3.78872 4.357029,-2.462668 6.724979,-5.68308 2.462668,-3.220412 2.462668,-6.914415 0,-4.925336 -3.31513,-7.861594 -3.31513,-3.030976 -9.850673,-3.030976 z"
         id="path294" />
    </g>
    <g
       aria-label="ostulad"
       id="text504"
       style="font-size:33.1405px;line-height:3.45;font-family:'Kaushan Script';-inkscape-font-specification:'Kaushan Script';stroke-width:0.388364">
      <path
         d="m 53.380845,133.8106 q -1.889008,-0.19884 -3.015785,-1.65703 -1.126777,-1.45818 -1.126777,-3.71173 0,-1.32562 0.397686,-2.75066 0.397686,-1.42505 1.126777,-2.75067 0.729091,-1.35876 1.723306,-2.55181 0.994215,-1.19306 2.154132,-2.05472 1.822728,-1.35876 3.413472,-1.35876 1.060496,0.56339 2.087851,2.35298 0.165703,0 0.298265,0 0.132562,-0.0331 0.298264,-0.0331 1.756447,0 1.756447,3.11521 0,2.08785 -0.695951,3.97686 -0.66281,1.85586 -1.889008,3.38033 -1.193058,1.52446 -2.883224,2.58496 -1.657025,1.02735 -3.645455,1.45818 z m 1.690166,-10.43926 q -0.563389,0.76223 -1.060496,1.65703 -0.497108,0.89479 -0.861653,1.82272 -0.364546,0.8948 -0.563389,1.75645 -0.198843,0.82851 -0.198843,1.49132 0,0.79537 0.265124,1.52447 0.265124,0.72909 0.596529,0.82851 1.491323,-0.33141 2.717521,-1.2262 1.259339,-0.92793 2.154133,-2.2867 0.927934,-1.35876 1.425041,-3.08206 0.530248,-1.72331 0.530248,-3.6786 0,-0.86165 -0.09942,-1.35876 -0.09942,-0.49711 -0.331405,-0.86165 -1.458182,0.43083 -2.6181,1.3919 -1.126777,0.96107 -1.955289,2.02157 z"
         style="fill:#ffffff"
         id="path297" />
      <path
         d="m 75.518698,119.46076 q -0.03314,0.62967 -0.231983,1.32562 -0.165703,0.66281 -0.430827,1.2262 -0.265124,0.53025 -0.563388,0.89479 -0.298265,0.36455 -0.563389,0.36455 -0.364545,-0.0331 -0.430826,-0.49711 0,-0.0994 0.06628,-0.29826 0.09942,-0.23199 0.198843,-0.49711 0.09942,-0.26512 0.165702,-0.53025 0.09942,-0.26512 0.09942,-0.46397 0,-0.46396 -0.231984,-0.76223 -0.198842,-0.3314 -0.563388,-0.3314 -1.32562,0 -2.02157,1.65702 -0.695951,1.65703 -0.695951,4.87166 0,0.3314 0.03314,0.39768 0.69595,-0.0331 1.226198,-0.0331 0.563389,-0.0331 1.093637,-0.0331 0.03314,0.0663 0.03314,0.26513 0,0.29826 -0.132562,0.43082 -0.762231,0.1657 -1.226198,0.29827 -0.430827,0.0994 -0.66281,0.19884 -0.231984,0.0994 -0.298265,0.23198 -0.03314,0.0994 -0.03314,0.29827 0,0.26512 0,0.53025 0.03314,0.26512 0.03314,0.66281 0,2.7838 -1.524463,4.47396 -1.491322,1.69017 -4.175703,1.95529 -0.463967,-0.0331 -0.961074,-0.26512 -0.497108,-0.23199 -0.961075,-0.59653 -0.430826,-0.36455 -0.762231,-0.82851 -0.331405,-0.43083 -0.463967,-0.8948 0,-1.25934 0.530248,-2.38611 0.530248,-1.15992 1.425041,-2.02157 0.927934,-0.8948 2.154133,-1.42504 1.259339,-0.56339 2.717521,-0.66281 0,-0.82852 -0.165703,-1.62389 -0.165702,-0.79537 -0.364545,-1.52446 -0.165703,-0.76223 -0.331405,-1.45818 -0.165703,-0.72909 -0.165703,-1.42505 0,-0.89479 0.364546,-1.75644 0.364545,-0.8948 0.961074,-1.62389 0.596529,-0.76223 1.391901,-1.29248 0.795372,-0.53024 1.657025,-0.72909 0.364546,0.0994 0.961075,0.59653 0.629669,0.46397 1.226198,1.0605 0.596529,0.59653 1.060496,1.2262 0.463967,0.59653 0.563388,0.99421 z m -10.936364,15.11207 q 0.795372,-0.33141 1.491322,-0.96107 0.729091,-0.62967 1.259339,-1.42505 0.530248,-0.79537 0.828513,-1.69016 0.331405,-0.8948 0.331405,-1.75645 -0.66281,0.0994 -1.458182,0.62967 -0.795372,0.49711 -1.491323,1.2262 -0.69595,0.69595 -1.159917,1.45818 -0.463967,0.76223 -0.463967,1.32562 0,0.72909 0.66281,1.19306 z"
         style="fill:#ffffff"
         id="path299" />
      <path
         d="m 77.50715,119.95787 q -0.165702,-0.19884 -0.298264,-0.82851 -0.132562,-0.66281 -0.132562,-1.12678 0.861653,0.0663 1.657025,0.13256 0.795372,0.0331 1.458182,0.0663 0.497107,-0.99421 1.060496,-1.95529 0.596529,-0.99421 1.126777,-1.78958 0.563388,-0.82852 1.027355,-1.3919 0.497108,-0.56339 0.762232,-0.7291 0.331405,0 0.828512,0.13257 0.530248,0.0994 1.060496,0.29826 0.530248,0.1657 0.961075,0.36455 0.430826,0.19884 0.596529,0.39768 -0.994215,1.25934 -1.723306,2.35298 -0.695951,1.06049 -1.524463,2.45239 0.66281,0 1.32562,-0.0331 0.69595,-0.0331 1.391901,-0.0994 0.165702,0.16571 0.265124,0.43083 0.09942,0.23198 0.09942,0.49711 -1.623884,0.59653 -3.943719,0.66281 -0.828513,1.59074 -1.491323,3.18148 -0.629669,1.55761 -1.093636,3.01579 -0.430827,1.45818 -0.695951,2.75066 -0.231983,1.29248 -0.231983,2.31984 0,1.45818 1.093636,1.62388 0.994215,-0.13256 1.889009,-0.49711 0.894793,-0.36454 1.590744,-0.92793 0.198843,0.29826 0.231983,0.49711 -0.198843,0.29826 -0.69595,0.69595 -0.463967,0.39768 -1.027356,0.76223 -0.563388,0.39769 -1.093636,0.66281 -0.530248,0.26512 -0.795372,0.29826 -0.828513,-0.0331 -1.657025,-0.36454 -0.828513,-0.33141 -1.524463,-0.82851 -0.66281,-0.49711 -1.093637,-1.09364 -0.430826,-0.62967 -0.430826,-1.2262 0,-0.79537 0.198843,-1.98843 0.231983,-1.2262 0.629669,-2.65124 0.397686,-1.42504 0.927934,-2.98264 0.530248,-1.55761 1.159918,-3.08207 z"
         style="fill:#ffffff"
         id="path301" />
      <path
         d="m 96.231507,131.92159 q -0.62967,-0.53025 -0.861653,-1.32562 -0.198843,-0.79537 -0.198843,-1.35876 0,-0.69595 0.165702,-1.19306 -0.132562,0 -0.596529,0.53025 -0.463967,0.53025 -1.027355,1.25934 -0.530248,0.72909 -1.060496,1.42504 -0.530248,0.69595 -0.795372,1.02736 -0.430827,0.46396 -0.828513,0.72909 -0.364545,0.26512 -0.596529,0.29826 -0.530247,-0.0331 -1.126776,-0.23198 -0.563389,-0.16571 -1.093637,-0.49711 -0.497107,-0.33141 -0.894793,-0.79537 -0.364546,-0.46397 -0.497108,-1.0605 0,-0.92793 0.03314,-1.52446 0.06628,-0.59653 0.231983,-1.29248 0.298265,-1.25934 0.861653,-2.85008 0.596529,-1.59075 1.358761,-3.11521 0.762231,-1.5576 1.690165,-2.88322 0.961074,-1.35876 2.02157,-2.121 0.298265,0 0.695951,0.0663 0.397686,0.0332 0.795372,0.16571 0.430826,0.13256 0.795372,0.3314 0.397686,0.1657 0.66281,0.46397 -0.298265,0.3314 -1.524463,2.22041 -1.193058,1.88901 -2.684381,5.43504 -0.165702,0.36455 -0.397686,1.0605 -0.231983,0.69595 -0.463967,1.45818 -0.231983,0.76223 -0.397686,1.49133 -0.132562,0.72909 -0.132562,1.15991 0,0.26513 0.06628,0.39769 0.09942,0.13256 0.165703,0.19884 0.497107,-0.19884 1.259339,-1.09363 0.762231,-0.8948 2.120992,-2.75067 0.331405,-0.46396 0.762231,-1.06049 0.463967,-0.59653 0.927934,-1.25934 0.463967,-0.69595 0.861653,-1.42504 0.430827,-0.72909 0.695951,-1.45818 0.132562,-0.39769 0.331405,-0.92794 0.231983,-0.56339 0.530248,-1.15992 0.331405,-0.59653 0.729091,-1.19305 0.430826,-0.62967 0.994215,-1.15992 0.430829,0 0.927929,0.0994 0.49711,0.0994 0.92794,0.26512 0.46397,0.13257 0.79537,0.33141 0.33141,0.1657 0.49711,0.36454 -0.59653,1.45819 -1.32562,2.88323 -0.72909,1.42504 -1.35876,2.81694 -0.629672,1.35876 -1.060498,2.71752 -0.430827,1.35876 -0.430827,2.65124 0,0.69595 0.09942,1.2262 0.132562,0.49711 0.265124,0.86165 0.132562,0.33141 0.231983,0.56339 0.132562,0.23198 0.132562,0.39769 0,0.0331 -0.06628,0.0994 -0.03314,0.0331 -0.06628,0.0331 -0.231983,0 -0.596529,-0.0994 -0.364545,-0.0994 -0.828512,-0.29827 -0.430827,-0.1657 -0.894794,-0.39768 -0.430826,-0.23199 -0.828512,-0.49711 z"
         style="fill:#ffffff"
         id="path303" />
      <path
         d="m 103.55554,130.52969 q 0,-1.45818 0.69595,-4.07628 0.69595,-2.65124 1.95529,-6.16414 2.05471,-5.60074 3.8443,-9.31248 1.82273,-3.74487 3.54603,-5.83272 0.39769,0.0663 0.96108,0.3314 0.59653,0.26513 1.15992,0.59653 0.56338,0.29826 0.99421,0.62967 0.46397,0.3314 0.59653,0.53025 -2.58496,3.04892 -4.54025,6.56182 -1.95529,3.51289 -3.57917,8.05314 -1.3919,3.91058 -2.121,7.05892 -0.72909,3.11521 -0.72909,5.20306 0,0.56339 0,0.69595 0,0.13256 0.0331,0.26513 -0.46396,-0.0663 -0.79537,-0.23199 -0.3314,-0.1657 -0.43082,-0.39768 -0.0663,-0.16571 -0.36455,-0.49711 -0.29826,-0.29826 -0.53025,-0.46397 -0.29826,-0.19884 -0.49711,-1.02735 -0.19884,-0.86166 -0.19884,-1.92215 z"
         style="fill:#008080"
         id="path305" />
      <path
         d="m 122.71076,119.26192 q 0.33141,0 0.76223,0.13256 0.46397,0.0994 0.82851,0.29827 0.36455,0.1657 0.59653,0.36454 0.26513,0.19884 0.26513,0.36455 -0.66281,1.3919 -1.2262,2.81694 -0.56339,1.3919 -0.96108,2.68438 -0.39768,1.29248 -0.62966,2.41926 -0.19885,1.12677 -0.19885,1.95529 0,0.92793 0.19885,1.5576 0.19884,0.59653 0.66281,0.86165 -0.39769,0.26513 -1.02736,0.43083 -0.62967,0.1657 -1.12678,0.1657 -1.78958,0 -1.78958,-2.4524 0,-1.889 1.25933,-5.16991 -0.66281,1.52446 -1.52446,2.88322 -0.86165,1.32562 -1.75644,2.35297 -0.8948,1.02736 -1.82273,1.69017 -0.8948,0.62967 -1.65703,0.76223 -1.2262,-0.0663 -1.98843,-1.15992 -0.76223,-1.12677 -0.76223,-2.85008 0,-1.85587 0.79537,-3.91058 0.79538,-2.05471 2.02157,-3.81116 1.25934,-1.75644 2.71752,-2.91636 1.45819,-1.19306 2.81695,-1.25934 0.3314,0.0994 0.72909,0.39769 0.43082,0.29826 0.79537,0.69595 0.39769,0.39768 0.66281,0.82851 0.26512,0.39769 0.29826,0.69595 -1.32562,0.19884 -2.75066,1.29248 -1.3919,1.09364 -2.55182,2.65124 -1.12677,1.52446 -1.85586,3.28091 -0.72909,1.75645 -0.72909,3.28091 0,0.62967 0.46396,0.79537 0.96108,-0.19884 2.22042,-1.62388 1.25934,-1.45818 3.04892,-4.47397 0.33141,-0.59653 0.72909,-1.32562 0.43083,-0.72909 0.86166,-1.52446 0.43082,-0.79538 0.82851,-1.59075 0.43083,-0.82851 0.79537,-1.59074 z"
         style="fill:#008080"
         id="path307" />
      <path
         d="m 133.94538,117.17407 q 0.66281,0 1.52446,0.39768 0.86165,0.39769 1.52446,1.02736 -0.1657,-1.32562 -0.43082,-2.48554 -0.23199,-1.19306 -0.7291,-2.4524 -0.46396,-1.25933 -1.25933,-2.75066 -0.79538,-1.49132 -1.98843,-3.41347 0.0994,-0.29826 0.43082,-0.69595 0.36455,-0.39768 0.79537,-0.72909 0.46397,-0.36455 0.92794,-0.62967 0.49711,-0.26512 0.92793,-0.3314 0.92794,1.02735 1.75645,2.58495 0.82851,1.52447 1.45818,3.31405 0.62967,1.75645 0.96107,3.64546 0.36455,1.88901 0.36455,3.61231 0,1.72331 -0.39769,3.54604 -0.36454,1.82272 -1.06049,3.57917 -0.66281,1.72331 -1.55761,3.28091 -0.89479,1.5576 -1.95528,2.7838 -1.02736,1.2262 -2.15414,1.98843 -1.12677,0.79537 -2.25355,0.99422 -2.2867,-0.26513 -3.51289,-1.49132 -1.19306,-1.19306 -1.19306,-3.31405 0,-1.12678 0.3314,-2.4524 0.36455,-1.32562 0.92794,-2.6181 0.59653,-1.32562 1.35876,-2.55182 0.79537,-1.25934 1.65702,-2.25355 0.8948,-0.99422 1.78959,-1.69017 0.89479,-0.69595 1.75645,-0.89479 z m -3.38033,15.94058 q 1.15991,-0.39769 2.31983,-1.75645 1.15992,-1.35876 2.08785,-3.18149 0.92794,-1.85586 1.49132,-3.94372 0.59653,-2.12099 0.59653,-4.07628 0,-0.56339 0,-0.69595 0,-0.13256 -0.0331,-0.26512 -0.79537,0.3314 -1.69016,1.12677 -0.8948,0.79538 -1.78959,1.85587 -0.89479,1.02736 -1.69017,2.25356 -0.79537,1.2262 -1.42504,2.45239 -0.62967,1.2262 -0.99421,2.35298 -0.36455,1.12678 -0.36455,1.98843 0,1.65702 1.49133,1.88901 z"
         style="fill:#008080"
         id="path309" />
    </g>
  </g>
</svg>
